<?xml version="1.0" encoding="UTF-8"?>
<svg width="60px" height="60px" viewBox="0 0 60 60" version="1.1" xmlns="http://www.w3.org/2000/svg" xmlns:xlink="http://www.w3.org/1999/xlink">
    <!-- Generator: Sketch 52.4 (67378) - http://www.bohemiancoding.com/sketch -->
    <title>Fill 1</title>
    <desc>Created with Sketch.</desc>
    <defs>
        <linearGradient x1="100%" y1="50%" x2="0%" y2="50%" id="linearGradient-1">
            <stop stop-color="#ffcc66" offset="0%"></stop>
            <stop stop-color="#784729" offset="100%"></stop>
        </linearGradient>
    </defs>
    <g id="Page-1" stroke="none" stroke-width="1" fill="none" fill-rule="evenodd">
        <g id="Homepage-Main" transform="translate(-1170.000000, -1619.000000)" fill="url(#linearGradient-1)">
            <g id="Group-44" transform="translate(1170.000000, 1170.000000)">
                <g id="Group-17" transform="translate(0.000000, 449.000000)">
                    <path d="M41.0958904,56.7123288 L46.8493151,56.7123288 L46.8493151,39.4520548 L41.0958904,39.4520548 L41.0958904,56.7123288 Z M41.0958904,27.0638807 C41.0958904,25.823636 42.5457534,22.1140591 43.976264,18.9041096 C45.9486426,23.3007504 46.8493151,26.2559163 46.8493151,27.0638807 C46.8493151,28.9094393 45.5588045,30.4109589 43.9726027,30.4109589 C42.386401,30.4109589 41.0958904,28.9094393 41.0958904,27.0638807 Z M35.3424658,56.6106339 L36.9863014,56.6106339 L35.3424658,56.6106339 Z M8.65175332,35.5186769 C7.80552452,34.4630137 7.11298145,33.2970932 6.57534247,32.0547945 L29.5890411,32.0547945 C29.0514021,33.2970932 28.358859,34.4630137 27.5126302,35.5188774 C25.0547028,38.5852322 21.7054678,40.2739726 18.0821048,40.2739726 C14.4587417,40.2739726 11.1095067,38.5852322 8.65175332,35.5186769 Z M4.97319071,24.7728321 L6.42946091,3.28767123 L28.913029,3.28767123 L30.3692992,24.7728321 C30.4810676,26.4210513 30.3663625,28.0405225 30.0441865,29.5890411 L5.29830346,29.5890411 C4.97595468,28.0405225 4.8614224,26.4210513 4.97319071,24.7728321 Z M33.9943343,56.9491525 L18.8668555,56.9491525 L18.8668555,43.6625085 C22.5980737,43.2807458 26.117847,41.2372881 28.6749008,37.9230508 C31.5215864,34.2333559 32.9622663,29.2462373 32.6275921,24.2406102 L31.1009065,1.404 C31.0477054,0.610983051 30.4946176,0 29.8300283,0 L5.35410765,0 C4.68951841,0 4.13643059,0.610983051 4.08339943,1.40379661 L2.55671388,24.2404068 C2.22203966,29.2460339 3.66271955,34.2331525 6.5094051,37.9228475 C9.06645892,41.2372881 12.5860623,43.2807458 16.3174504,43.6625085 L16.3174504,56.9491525 L1.27478754,56.9491525 C0.570764873,56.9491525 0,57.6321356 0,58.4745763 C0,59.3170169 0.570764873,60 1.27478754,60 L8.08606232,60 L11.1093484,60 L16.1971105,60 L18.9871955,60 L50.5873088,60 L53.6128045,60 L55.0708215,60 L54.2209632,60 L58.7252125,60 C59.4292351,60 60,59.3170169 60,58.4745763 C60,57.6321356 59.4292351,56.9491525 58.7252125,56.9491525 L49.4617564,56.9491525 L49.4617564,38.1355932 C49.4617564,37.2931525 48.8909915,36.6101695 48.1869688,36.6101695 L45.3824363,36.6101695 L45.3824363,32.967661 C47.7210765,32.2814237 49.4617564,29.7528814 49.4617564,26.7457627 C49.4617564,23.8000678 45.9277054,16.1190508 45.2192635,14.6090847 C44.9935411,14.1282712 44.5684419,13.8305085 44.1076487,13.8305085 C43.6468555,13.8305085 43.2217564,14.1282712 42.996034,14.6090847 C42.2875921,16.1190508 38.7535411,23.8000678 38.7535411,26.7457627 C38.7535411,29.7528814 40.494221,32.2812203 42.8328612,32.967661 L42.8328612,36.6101695 L40.1983003,36.6101695 C39.4942776,36.6101695 38.9235127,37.2931525 38.9235127,38.1355932 L38.9235127,56.9491525 L37.9036827,56.9491525 L33.9943343,56.9491525 Z" id="Fill-1"></path>
                </g>
            </g>
        </g>
    </g>
</svg>